<svg width="572" height="485" viewBox="0 0 572 485" fill="none" xmlns="http://www.w3.org/2000/svg">
<path d="M268.319 67.9199H63.8809V250.818H268.319V67.9199Z" fill="white" fill-opacity="0.1"/>
<path opacity="0.5" d="M268.319 250.82C268.319 250.82 268.319 249.642 268.319 247.428C268.319 245.214 268.319 241.904 268.319 237.629C268.319 229.044 268.248 216.489 268.201 200.508C268.142 168.545 268.059 122.885 267.965 67.9215L268.425 68.3808L63.9038 68.4632L64.4455 67.9215C64.4455 134.462 64.4455 197.081 64.4455 250.82L63.9626 250.349L211.824 250.584L253.538 250.714H264.573H267.424H268.401C268.401 250.714 268.095 250.714 267.471 250.714H264.679L253.739 250.772L212.142 250.902L63.9626 251.138H63.4798V250.655C63.4798 196.916 63.4798 134.297 63.4209 67.7566V67.2148H63.9862L268.401 67.2973H268.872V67.7566C268.778 122.838 268.695 168.604 268.637 200.626C268.637 216.572 268.542 229.091 268.519 237.653C268.519 241.893 268.519 245.143 268.519 247.369C268.519 249.595 268.319 250.82 268.319 250.82Z" fill="url(#paint0_linear)"/>
<path opacity="0.5" d="M142.269 100.413C142.269 100.719 131.505 100.966 118.244 100.966C104.983 100.966 94.207 100.719 94.207 100.413C94.207 100.106 104.924 99.9062 118.244 99.9062C131.564 99.9062 142.269 100.118 142.269 100.413Z" fill="url(#paint1_linear)"/>
<path opacity="0.5" d="M228.889 114.157C228.889 114.451 199.329 114.699 162.937 114.699C126.546 114.699 96.9033 114.451 96.9033 114.157C96.9033 113.863 126.464 113.604 162.937 113.604C199.411 113.604 228.889 113.851 228.889 114.157Z" fill="url(#paint2_linear)"/>
<path opacity="0.5" d="M103.168 137.418H94.5586V146.027H103.168V137.418Z" fill="white" fill-opacity="0.37"/>
<path opacity="0.5" d="M124.368 137.418H115.759V146.027H124.368V137.418Z" fill="white" fill-opacity="0.37"/>
<path opacity="0.5" d="M145.954 137.027H137.345V145.636H145.954V137.027Z" fill="white" fill-opacity="0.37"/>
<path opacity="0.5" d="M166.763 137.418H158.154V146.027H166.763V137.418Z" fill="white" fill-opacity="0.37"/>
<path opacity="0.5" d="M187.973 137.418H179.364V146.027H187.973V137.418Z" fill="white" fill-opacity="0.37"/>
<path opacity="0.5" d="M209.173 137.418H200.564V146.027H209.173V137.418Z" fill="white" fill-opacity="0.37"/>
<path opacity="0.5" d="M230.373 137.418H221.764V146.027H230.373V137.418Z" fill="white" fill-opacity="0.37"/>
<path opacity="0.5" d="M103.168 155.73H94.5586V164.34H103.168V155.73Z" fill="white" fill-opacity="0.37"/>
<path opacity="0.5" d="M124.368 155.73H115.759V164.34H124.368V155.73Z" fill="white" fill-opacity="0.37"/>
<path opacity="0.5" d="M145.565 155.73H136.956V164.34H145.565V155.73Z" fill="white" fill-opacity="0.37"/>
<path opacity="0.5" d="M166.763 155.73H158.154V164.34H166.763V155.73Z" fill="white" fill-opacity="0.37"/>
<path opacity="0.5" d="M187.973 155.73H179.364V164.34H187.973V155.73Z" fill="white" fill-opacity="0.37"/>
<path opacity="0.5" d="M209.562 155.328H200.953V163.937H209.562V155.328Z" fill="white" fill-opacity="0.37"/>
<path opacity="0.5" d="M230.373 155.73H221.764V164.34H230.373V155.73Z" fill="white" fill-opacity="0.37"/>
<path opacity="0.5" d="M103.168 174.031H94.5586V182.64H103.168V174.031Z" fill="white" fill-opacity="0.37"/>
<path opacity="0.5" d="M124.757 173.643H116.147V182.252H124.757V173.643Z" fill="white" fill-opacity="0.37"/>
<path opacity="0.5" d="M145.565 174.031H136.956V182.64H145.565V174.031Z" fill="white" fill-opacity="0.37"/>
<path opacity="0.5" d="M166.763 174.031H158.154V182.64H166.763V174.031Z" fill="white" fill-opacity="0.37"/>
<path opacity="0.5" d="M187.973 174.031H179.364V182.64H187.973V174.031Z" fill="white" fill-opacity="0.37"/>
<path opacity="0.5" d="M209.173 174.031H200.564V182.64H209.173V174.031Z" fill="white" fill-opacity="0.37"/>
<path opacity="0.5" d="M230.373 174.031H221.764V182.64H230.373V174.031Z" fill="white" fill-opacity="0.37"/>
<path opacity="0.5" d="M103.168 192.346H94.5586V200.955H103.168V192.346Z" fill="white" fill-opacity="0.37"/>
<path opacity="0.5" d="M124.368 192.346H115.759V200.955H124.368V192.346Z" fill="white" fill-opacity="0.37"/>
<path opacity="0.5" d="M145.565 192.346H136.956V200.955H145.565V192.346Z" fill="white" fill-opacity="0.37"/>
<path opacity="0.5" d="M167.165 191.955H158.556V200.564H167.165V191.955Z" fill="white" fill-opacity="0.37"/>
<path opacity="0.5" d="M187.973 192.346H179.364V200.955H187.973V192.346Z" fill="white" fill-opacity="0.37"/>
<path opacity="0.5" d="M209.173 192.346H200.564V200.955H209.173V192.346Z" fill="white" fill-opacity="0.37"/>
<path opacity="0.5" d="M230.373 192.346H221.764V200.955H230.373V192.346Z" fill="white" fill-opacity="0.37"/>
<path opacity="0.5" d="M103.168 210.66H94.5586V219.269H103.168V210.66Z" fill="white" fill-opacity="0.37"/>
<path opacity="0.5" d="M124.368 210.66H115.759V219.269H124.368V210.66Z" fill="white" fill-opacity="0.37"/>
<path opacity="0.5" d="M145.565 210.66H136.956V219.269H145.565V210.66Z" fill="white" fill-opacity="0.37"/>
<path opacity="0.5" d="M166.763 210.66H158.154V219.269H166.763V210.66Z" fill="white" fill-opacity="0.37"/>
<path opacity="0.5" d="M187.973 210.66H179.364V219.269H187.973V210.66Z" fill="white" fill-opacity="0.37"/>
<path d="M209.562 210.27H200.953V218.879H209.562V210.27Z" fill="#E0E0E0"/>
<path d="M230.373 210.66H221.764V219.269H230.373V210.66Z" fill="#E0E0E0"/>
<path d="M499.191 24.3801L486.048 24.4512L486.402 89.8258L499.545 89.7547L499.191 24.3801Z" fill="#97B6FF"/>
<path d="M406.241 24.5464L372.217 24.7305L372.412 60.8155L406.436 60.6314L406.241 24.5464Z" fill="#97B6FF"/>
<path opacity="0.5" d="M440.114 24.3589L406.09 24.543L406.285 60.628L440.309 60.4439L440.114 24.3589Z" fill="#8EB0FF"/>
<path d="M372.265 34.7213C394.877 34.9098 417.501 34.8038 440.148 34.4033C440.348 34.368 440.478 34.1796 440.442 33.9794C440.419 33.8263 440.301 33.7085 440.148 33.6849C417.548 33.5554 394.877 33.6849 372.277 34.0971C372.1 34.1325 371.994 34.2973 372.029 34.474C372.053 34.6036 372.159 34.6978 372.277 34.7213H372.265Z" fill="white"/>
<path d="M412.843 60.0386L351.025 60.373L351.184 89.7804L413.002 89.446L412.843 60.0386Z" fill="#97B6FF"/>
<path opacity="0.5" d="M474.366 59.6968L412.548 60.0312L412.707 89.4386L474.525 89.1042L474.366 59.6968Z" fill="#8EB0FF"/>
<path d="M351.063 68.5681C392.129 69.0392 433.337 68.5681 474.392 67.9557C474.592 67.9204 474.722 67.7319 474.687 67.5317C474.663 67.3786 474.545 67.2608 474.392 67.2373C433.326 67.0253 392.118 67.0489 351.063 67.9439C350.886 67.9792 350.78 68.1441 350.815 68.3208C350.839 68.4503 350.933 68.5445 351.063 68.5681Z" fill="white"/>
<path d="M567.419 89.8027H327.932V100.343H567.419V89.8027Z" fill="#84A8FD"/>
<path d="M376.856 94.8672H367.14V130.823H376.856V94.8672Z" fill="#84A8FD"/>
<path d="M521.994 94.8672H512.266V130.823H521.994V94.8672Z" fill="#84A8FD"/>
<path opacity="0.5" d="M512.207 8.98637e-05L498.867 0.0722656L499.354 89.9785L512.694 89.9064L512.207 8.98637e-05Z" fill="url(#paint3_linear)"/>
<path d="M532.749 16.583L512.342 16.7871L513.07 89.6446L533.478 89.4406L532.749 16.583Z" fill="#FFCB67"/>
<path d="M532.43 30.7986C529.15 31.1519 525.848 31.2697 522.557 31.1519C519.267 31.2697 515.976 31.1519 512.696 30.7986C512.696 30.5984 517.114 30.4453 522.557 30.4453C528 30.4453 532.43 30.5984 532.43 30.7986Z" fill="white"/>
<path d="M532.43 27.7381C529.15 28.0914 525.848 28.2092 522.557 28.0914C519.267 28.2092 515.976 28.0914 512.696 27.7381C512.696 27.5379 517.114 27.3848 522.557 27.3848C528 27.3848 532.43 27.5379 532.43 27.7381Z" fill="white"/>
<path d="M532.43 78.7088C525.859 79.1799 519.267 79.1799 512.696 78.7088C512.696 78.5086 517.114 78.3555 522.557 78.3555C528 78.3555 532.43 78.4615 532.43 78.7088Z" fill="white"/>
<path d="M532.43 75.5975C525.859 76.0685 519.267 76.0685 512.696 75.5975C512.696 75.3972 517.114 75.2441 522.557 75.2441C528 75.2441 532.43 75.3972 532.43 75.5975Z" fill="white"/>
<path d="M522.831 68.9185C522.649 68.9185 522.489 61.5696 522.489 52.5012C522.489 43.4329 522.649 36.084 522.831 36.084C523.013 36.084 523.172 43.4329 523.172 52.5012C523.172 61.5696 523.024 68.9185 522.831 68.9185Z" fill="white"/>
<path d="M554.831 34.6484H532.607V89.6474H554.831V34.6484Z" fill="#FB6E67"/>
<path d="M509.005 15.3722C509.005 17.4568 507.309 19.1527 505.225 19.1527C503.14 19.1527 501.444 17.4568 501.444 15.3722C501.444 13.2877 503.14 11.5918 505.225 11.5918H505.237C507.321 11.6036 509.005 13.2877 509.005 15.3722Z" fill="white"/>
<path d="M506.391 25.7578H504.06V79.2493H506.391V25.7578Z" fill="white"/>
<path d="M443.042 327.336H553.193C563.039 327.336 571.012 335.309 571.012 345.155V483.677H425.259V345.155C425.259 335.333 433.22 327.359 443.042 327.336Z" fill="#FFCB67"/>
<path d="M558.742 328.137C558.918 328.137 559.048 362.938 559.048 405.865C559.048 448.793 558.918 483.594 558.742 483.594C558.565 483.594 558.436 448.793 558.436 405.865C558.436 362.938 558.577 328.137 558.742 328.137Z" fill="#263238"/>
<path d="M486.925 157.615C500.327 176.799 508.017 199.4 509.089 222.789C509.772 238.453 507.664 255.141 515.096 268.943C525.766 288.752 548.837 288.081 555.903 309.433C558.977 318.725 553.312 339.158 551.781 348.827C550.05 359.804 556.763 369.025 555.032 380.013C553.442 390.083 545.904 397.267 536.86 401.954C528.804 406.123 521.361 406.241 512.987 402.766C497.018 396.159 483.733 389.187 472.368 376.186C456.399 357.931 451.57 332.61 448.814 308.55C442.796 255.341 444.021 201.555 452.43 148.676" fill="#1E1C61"/>
<path d="M521.066 405.017C521.231 404.958 521.396 404.923 521.572 404.888C521.914 404.805 522.432 404.723 523.091 404.523C528.061 403.168 532.513 400.377 535.881 396.479C537.153 394.995 538.119 393.276 538.731 391.427C539.32 389.318 539.65 387.152 539.732 384.961C539.815 379.92 539.308 374.88 538.201 369.957C537.177 364.61 535.846 358.91 535.446 352.727C535.245 349.571 535.481 346.403 536.117 343.305C536.859 340.09 537.86 336.934 539.108 333.884C540.392 330.751 541.511 327.559 542.476 324.309C543.478 320.988 543.76 317.502 543.301 314.063C542.747 310.648 541.44 307.397 539.473 304.547C537.542 301.779 535.304 299.236 532.796 296.986C527.932 292.44 522.667 288.742 518.169 284.479C510.148 277.048 503.671 268.109 499.113 258.169C497.347 254.365 495.886 250.431 494.732 246.392C494.167 244.637 493.837 242.941 493.437 241.41C493.036 239.879 492.86 238.442 492.601 237.17C492.235 234.591 491.953 232.601 491.882 231.282C491.882 230.622 491.788 230.104 491.764 229.727C491.741 229.35 491.764 229.197 491.764 229.197C491.764 229.197 491.764 229.374 491.847 229.727C491.929 230.081 491.953 230.611 492.035 231.27C492.141 232.624 492.459 234.615 492.86 237.159C493.131 238.43 493.425 239.844 493.743 241.387C494.061 242.929 494.497 244.578 495.086 246.333C496.263 250.325 497.747 254.224 499.525 257.992C504.107 267.838 510.584 276.706 518.569 284.067C523.044 288.236 528.32 291.969 533.231 296.539C535.775 298.823 538.048 301.403 540.003 304.206C542.029 307.126 543.372 310.471 543.925 313.981C544.396 317.502 544.114 321.07 543.089 324.474C542.17 327.819 540.887 330.987 539.697 334.096C538.449 337.111 537.459 340.22 536.706 343.4C536.07 346.45 535.846 349.583 536.034 352.692C536.352 358.792 537.719 364.469 538.731 369.851C539.815 374.821 540.31 379.897 540.192 384.973C540.098 387.199 539.732 389.401 539.132 391.544C538.472 393.429 537.471 395.172 536.176 396.691C534.103 399.105 531.571 401.084 528.733 402.521C526.966 403.463 525.082 404.169 523.139 404.64C522.455 404.817 521.772 404.947 521.066 405.017Z" fill="#5A4980"/>
<path d="M301.789 447.096L358.319 420.256C358.319 420.256 380.33 313.379 384.5 305.359C388.669 297.339 406.052 290.402 406.052 290.402L403.143 435.119L397.961 468.531L318.253 476.08L301.789 447.096Z" fill="white"/>
<path d="M253.561 472.416C253.243 472.416 251.676 473.382 252.984 475.867C254.291 478.352 263.877 486.56 266.692 483.698C269.507 480.837 265.208 477.351 265.208 477.351L253.561 472.416Z" fill="#FFBE9D"/>
<path d="M265.609 477.46C265.609 477.46 277.174 478.92 281.614 480.616C286.454 482.454 292.343 481.193 296.3 478.52C298.549 477.024 300.646 475.317 302.565 473.409L317.31 473.173C321.633 468.109 322.74 461.055 320.184 454.907C319.395 452.811 318.252 450.867 316.816 449.148C315.061 447.252 312.293 445.721 307.512 444.896L289.999 448.677C289.999 448.677 262.912 446.734 258.036 449.018C258.036 449.018 251.971 452.61 250.098 454.118C249.392 454.695 247.237 461.596 251.653 465.188C251.653 465.188 247.814 468.239 249.898 470.983L250.888 472.16C250.888 472.16 248.308 475.505 249.639 476.965C250.97 478.426 262.594 485.209 266.728 483.608C270.861 482.006 267.446 478.131 265.609 477.425" fill="#FCC6AB"/>
<path d="M254.562 459.217C255.056 459.358 255.527 459.535 255.998 459.735C256.905 460.076 258.236 460.571 259.908 461.101C260.733 461.372 261.651 461.643 262.652 461.902C263.653 462.161 264.725 462.385 265.844 462.75C267.057 463.08 268.164 463.751 269.024 464.67C269.99 465.706 270.319 467.19 269.872 468.544C269.601 469.216 269.094 469.757 268.447 470.087C267.846 470.381 267.187 470.57 266.515 470.629C265.279 470.699 264.042 470.629 262.829 470.429C260.792 470.099 258.79 469.581 256.846 468.874C255.186 468.285 253.879 467.696 252.972 467.343C252.489 467.166 252.03 466.954 251.594 466.683C252.088 466.813 252.571 466.978 253.042 467.166C253.961 467.496 255.292 468.002 256.952 468.544C258.872 469.192 260.839 469.675 262.841 469.993C264.007 470.181 265.196 470.228 266.374 470.158C266.986 470.099 267.575 469.934 268.129 469.663C268.659 469.38 269.083 468.921 269.306 468.368C269.695 467.202 269.436 465.918 268.623 464.999C267.823 464.14 266.798 463.515 265.667 463.197C264.584 462.832 263.5 462.597 262.511 462.314C261.522 462.031 260.591 461.737 259.767 461.454C258.095 460.877 256.787 460.277 255.892 459.935C255.433 459.747 254.986 459.499 254.562 459.217Z" fill="#EB996E"/>
<path d="M255.599 450.865C256.082 451.007 256.564 451.171 257.024 451.383C257.942 451.737 259.261 452.243 260.91 452.785C262.559 453.327 264.549 453.963 266.799 454.469C268.035 454.657 269.201 455.14 270.226 455.859C270.768 456.306 271.121 456.942 271.227 457.637C271.333 458.344 271.227 459.05 270.932 459.698C270.332 460.935 269.225 461.877 267.906 462.265C266.716 462.654 265.456 462.748 264.22 462.56C262.206 462.159 260.239 461.582 258.331 460.84L254.433 459.474C253.95 459.321 253.479 459.133 253.02 458.921C253.514 459.003 254.009 459.133 254.492 459.298L258.437 460.475C260.357 461.158 262.323 461.688 264.326 462.077C265.491 462.242 266.681 462.136 267.8 461.771C269.001 461.406 270.002 460.546 270.544 459.415C271.121 458.32 270.874 456.966 269.967 456.13C269.001 455.458 267.906 455.011 266.74 454.822C264.49 454.257 262.5 453.645 260.851 453.032C259.203 452.42 257.907 451.855 257.012 451.478C256.529 451.313 256.058 451.113 255.599 450.865Z" fill="#EB996E"/>
<path d="M261.17 453.223C260.934 452.457 260.746 451.668 260.64 450.867C260.369 450.102 260.18 449.313 260.062 448.512C260.628 449.124 260.993 449.89 261.111 450.714C261.405 451.527 261.429 452.41 261.17 453.223Z" fill="#EB996E"/>
<path d="M301.955 453.599L291.65 449.689C291.65 449.689 263.044 436.334 262.561 437.064C262.078 437.794 260.523 437.7 260.865 441.186C261.207 444.672 277.871 451.715 278.401 452.963C278.931 454.211 278.048 460.288 284.207 464.658C290.367 469.027 294.807 469.133 294.807 469.133" fill="#FCC6AB"/>
<path d="M294.804 469.024H294.533L293.826 468.954C292.92 468.812 292.025 468.589 291.153 468.306C287.938 467.211 284.97 465.503 282.414 463.277C280.683 461.652 279.458 459.567 278.881 457.259C278.587 455.987 278.387 454.703 278.269 453.408C278.245 453.255 278.21 453.113 278.163 452.972C278.092 452.854 277.998 452.76 277.892 452.689C277.621 452.489 277.338 452.313 277.056 452.148C276.479 451.806 275.878 451.476 275.242 451.147C272.769 449.816 270.119 448.485 267.458 446.954C266.091 446.189 264.772 445.352 263.489 444.446C262.829 443.986 262.205 443.456 261.628 442.891C261.322 442.597 261.051 442.267 260.839 441.902C260.721 441.701 260.639 441.478 260.603 441.254C260.58 441.042 260.58 440.83 260.603 440.618C260.509 439.77 260.662 438.899 261.039 438.133C261.275 437.768 261.581 437.462 261.946 437.226C262.099 437.132 262.228 437.014 262.346 436.885C262.346 436.885 262.346 436.885 262.44 436.779C262.499 436.732 262.57 436.72 262.641 436.72C262.711 436.708 262.77 436.708 262.841 436.72L263.159 436.802C264.702 437.273 266.127 437.897 267.552 438.486C270.378 439.664 273.075 440.842 275.643 442.019C280.789 444.375 285.382 446.471 289.245 448.285C290.211 448.721 291.118 449.18 291.989 449.557L294.509 450.546L298.549 452.148L301.093 453.172L301.741 453.455C301.894 453.455 301.964 453.549 301.964 453.561C301.964 453.573 301.882 453.561 301.729 453.49L301.058 453.267L298.478 452.313L294.403 450.864L291.86 449.91C290.965 449.545 290.058 449.097 289.092 448.662L275.454 442.502C272.875 441.325 270.178 440.147 267.352 438.969C265.938 438.392 264.501 437.791 263.018 437.309L262.758 437.25H262.664C262.664 437.25 262.664 437.179 262.664 437.132C262.994 437.344 262.747 437.203 262.817 437.25C262.676 437.426 262.511 437.579 262.323 437.697C262.005 437.886 261.746 438.157 261.545 438.463C261.216 439.158 261.086 439.923 261.169 440.689C261.157 441.054 261.251 441.419 261.416 441.749C261.616 442.078 261.852 442.373 262.123 442.644C262.676 443.197 263.277 443.692 263.924 444.139C265.196 445.058 266.527 445.859 267.846 446.624C270.496 448.155 273.122 449.498 275.607 450.829C276.231 451.17 276.785 451.5 277.433 451.865C277.739 452.042 278.033 452.23 278.316 452.43C278.493 452.548 278.622 452.701 278.716 452.89C278.775 453.066 278.811 453.243 278.834 453.42C278.94 454.703 279.14 455.975 279.411 457.235C279.953 459.485 281.119 461.522 282.78 463.124C285.288 465.35 288.197 467.069 291.341 468.223C292.201 468.53 293.073 468.765 293.968 468.942C294.274 469.013 294.509 469.036 294.674 469.06L294.804 469.024Z" fill="#EB996E"/>
<path d="M263.253 470.369C263.63 470.416 264.006 470.522 264.348 470.687C265.314 471.076 266.22 471.594 267.045 472.242C267.622 472.689 268.14 473.196 268.599 473.761C269.188 474.397 269.483 475.245 269.436 476.116C269.247 477.106 268.505 477.906 267.528 478.177C266.538 478.448 265.502 478.413 264.536 478.083C261.262 477.117 258.083 475.845 255.044 474.279C254.125 473.796 253.242 473.278 252.382 472.701C252.053 472.513 251.746 472.277 251.476 472.018C251.829 472.159 252.159 472.324 252.477 472.536C253.113 472.901 254.031 473.408 255.197 473.973C258.236 475.422 261.392 476.646 264.619 477.624C265.502 477.93 266.444 477.965 267.351 477.73C268.164 477.518 268.776 476.87 268.965 476.057C269.012 475.292 268.764 474.538 268.258 473.961C267.822 473.408 267.339 472.913 266.798 472.465C265.714 471.629 264.525 470.923 263.253 470.369Z" fill="#EB996E"/>
<g opacity="0.2">
<path opacity="0.3" d="M397.559 468.53C388.302 437.309 380.14 397.102 370.884 365.881C367.492 394.699 371.732 432.751 377.031 461.275C377.655 464.62 377.938 467.894 380.564 470.096L397.559 468.53Z" fill="black"/>
</g>
<path d="M382.402 447.098C382.272 447.098 381.884 445.061 380.623 441.94C379.881 440.126 378.998 438.359 377.974 436.687C376.702 434.65 375.241 432.742 373.616 430.963C371.967 429.209 370.165 427.619 368.222 426.194C366.632 425.039 364.948 424.027 363.181 423.155C360.167 421.671 358.141 421.129 358.176 421.012C358.671 421.071 359.154 421.188 359.613 421.353C360.167 421.495 360.72 421.671 361.25 421.895C361.968 422.142 362.675 422.437 363.37 422.766C365.184 423.603 366.915 424.592 368.552 425.734C370.542 427.148 372.391 428.761 374.075 430.539C375.724 432.353 377.184 434.332 378.456 436.428C379.469 438.147 380.341 439.937 381.036 441.81C381.354 442.599 381.542 443.341 381.742 443.989C381.919 444.542 382.06 445.108 382.166 445.673C382.296 446.144 382.366 446.615 382.402 447.098Z" fill="#DCE6FF"/>
<path d="M400.044 288.943C400.044 288.943 370.448 355.071 370.448 367.248C370.448 379.426 392.625 463.738 392.625 463.738C392.413 467.095 391.553 483.9 391.553 483.9L515.907 484.336L517.803 457.602L508.099 432.128L517.791 360.111C517.791 360.111 524.316 318.303 524.858 306.608C525.588 291.981 476.03 275.022 477.384 272.996L468.834 261.502L419.83 301.297L410.137 273.314L398.525 284.279L400.044 288.943Z" fill="white"/>
<path d="M481.482 306.538C468.021 329.303 443.395 370.782 443.395 370.782L399.255 421.117C399.255 421.117 396.369 446.686 402.14 454.529C407.911 462.373 417.815 467.731 417.815 467.731C417.815 467.731 429.463 467.731 444.267 455.353C459.07 442.976 499.902 391.828 499.902 391.828L513.928 374.904C513.928 374.904 530.651 333.826 527.531 312.921C526.353 304.854 522.89 301.509 518.321 297.811C506.815 288.543 489.008 293.807 481.482 306.538Z" fill="white"/>
<path d="M519.124 360.652C519.065 360.817 518.994 360.97 518.912 361.123C518.759 361.453 518.535 361.889 518.264 362.466C517.675 363.644 516.78 365.351 515.555 367.518C513.117 371.864 509.325 378 504.379 385.408C501.894 389.106 499.126 393.122 496.076 397.385C493.026 401.648 489.563 406.041 486.713 411.176C483.863 416.311 481.272 421.917 478.151 427.523C474.948 433.329 471.191 438.817 466.928 443.905C462.664 449.016 457.659 453.444 452.065 457.048C446.824 460.392 440.971 462.654 434.847 463.714C429.3 464.703 423.611 464.456 418.17 463.007C415.709 462.347 413.33 461.382 411.104 460.145C409.031 459.05 407.076 457.731 405.286 456.212C403.649 454.857 402.177 453.303 400.905 451.583C399.763 450.064 398.797 448.415 398.008 446.684C396.795 443.893 396.006 440.937 395.653 437.922C395.452 436.014 395.382 434.106 395.452 432.186C395.452 431.55 395.523 431.009 395.547 430.691C395.535 430.526 395.535 430.349 395.547 430.184C395.558 430.349 395.558 430.526 395.547 430.691C395.547 431.056 395.547 431.55 395.547 432.186C395.523 434.094 395.629 435.99 395.853 437.886C396.253 440.878 397.078 443.787 398.303 446.543C399.092 448.239 400.069 449.852 401.2 451.348C402.46 453.032 403.92 454.551 405.557 455.882C407.336 457.366 409.267 458.661 411.316 459.733C413.519 460.934 415.85 461.876 418.276 462.524C423.659 463.926 429.288 464.149 434.764 463.16C440.806 462.1 446.577 459.851 451.747 456.541C457.294 452.961 462.252 448.568 466.48 443.504C470.72 438.452 474.453 432.999 477.633 427.228C480.754 421.658 483.274 416.005 486.23 410.893C489.116 406.124 492.26 401.507 495.652 397.079C498.714 392.839 501.54 388.835 504.002 385.16C508.995 377.8 512.835 371.699 515.331 367.401C516.592 365.245 517.522 363.561 518.134 362.407L518.853 361.088C518.923 360.935 519.018 360.794 519.124 360.652Z" fill="#DCE6FF"/>
<path d="M396.994 418.865C396.994 418.948 396.369 419.336 395.557 420.243C393.331 422.61 393.001 426.179 394.756 428.911C395.38 429.947 395.934 430.454 395.934 430.525C395.934 430.595 395.192 430.195 394.414 429.158C392.306 426.308 392.683 422.339 395.274 419.937C395.734 419.419 396.334 419.054 396.994 418.865Z" fill="#DCE6FF"/>
<path d="M405.155 432.223C405.391 432.259 405.626 432.306 405.85 432.388L406.675 432.612L407.852 432.824C410.302 433.142 412.787 432.918 415.13 432.141C418.616 430.975 421.82 429.102 424.552 426.629C427.791 423.52 430.735 420.105 433.326 416.442C435.964 412.744 439.003 409.352 442.383 406.325C443.984 404.983 445.551 403.793 446.858 402.51C448.106 401.367 449.107 399.989 449.802 398.447C450.756 396.162 450.497 393.559 449.131 391.498C448.566 390.803 447.835 390.25 446.999 389.908C447.235 389.955 447.459 390.014 447.682 390.108C448.318 390.391 448.872 390.815 449.319 391.357C450.839 393.465 451.168 396.197 450.214 398.611C449.508 400.213 448.495 401.673 447.223 402.875C445.892 404.194 444.314 405.419 442.748 406.761C439.427 409.788 436.423 413.156 433.821 416.819C431.194 420.517 428.215 423.944 424.917 427.065C422.138 429.55 418.864 431.411 415.307 432.553C412.893 433.307 410.337 433.483 407.852 433.059L406.675 432.789C406.345 432.694 406.074 432.577 405.862 432.506C405.615 432.447 405.379 432.353 405.155 432.223Z" fill="#DCE6FF"/>
<path d="M487.477 299.543C487.324 299.79 487.159 300.026 486.982 300.25C486.594 300.744 486.099 301.427 485.475 302.216C484.132 303.889 482.283 306.385 480.022 309.495C474.263 317.668 469.01 326.183 464.323 335.016C458.764 345.332 454.171 354.907 450.65 361.738C448.907 365.165 447.47 367.921 446.422 369.805L445.28 371.96C445.15 372.219 444.997 372.467 444.82 372.69C444.915 372.42 445.02 372.149 445.162 371.901L446.269 369.676L450.308 361.538C453.724 354.648 458.27 345.05 463.829 334.709C468.528 325.853 473.839 317.338 479.728 309.224C482.083 306.15 483.932 303.677 485.333 302.051L486.935 300.155C487.1 299.932 487.277 299.731 487.477 299.543Z" fill="#DCE6FF"/>
<g opacity="0.2">
<path opacity="0.3" d="M395.58 430.184C401.316 433.293 407.628 432.963 414.035 431.715C420.501 430.419 426.33 426.933 430.523 421.846C429.557 427.51 426.896 432.763 422.903 436.897C418.828 440.889 412.916 443.198 407.31 442.173C401.704 441.148 396.028 435.872 395.533 430.184" fill="black"/>
</g>
<g opacity="0.2">
<path opacity="0.3" d="M449.874 396.198C453.514 401.816 454.786 408.635 453.408 415.183C458.272 407.74 459.414 398.318 458.118 389.521C456.823 380.723 453.231 372.42 449.25 364.471C449.25 364.471 444.869 371.89 444.822 372.715C444.61 377.002 446.188 385.057 447.013 389.261C449.25 391.405 450.251 394.526 449.686 397.576" fill="black"/>
</g>
<g opacity="0.2">
<path opacity="0.3" d="M415.038 460.993C426.745 470.12 444.116 470.544 456.917 463.054C469.248 455.834 476.844 442.832 483.887 430.408C494.804 411.164 508.112 387.362 515.909 366.658C515.909 366.658 494.062 396.466 487.479 409.315C483.086 418.006 478.104 426.38 472.569 434.376C459.826 452.713 438.474 463.113 416.18 461.852" fill="#4B7FFB"/>
</g>
<path d="M391.552 483.839C391.528 483.721 391.528 483.591 391.552 483.474C391.552 483.191 391.552 482.838 391.552 482.402C391.552 481.401 391.634 480.046 391.705 478.315C391.87 474.782 392.094 469.718 392.376 463.676V463.818C390.268 456.751 387.795 448.178 385.228 438.921C381.836 426.649 378.974 415.484 377.042 407.37C376.089 403.319 375.335 400.021 374.864 397.736C374.64 396.641 374.463 395.758 374.334 395.11C374.263 394.804 374.216 394.498 374.181 394.18C374.298 394.474 374.393 394.769 374.452 395.075L375.099 397.689C375.676 400.045 376.477 403.272 377.455 407.264C379.492 415.355 382.425 426.496 385.816 438.756C388.372 448.013 390.81 456.586 392.883 463.664V463.747C392.518 469.789 392.211 474.817 391.988 478.398C391.87 480.105 391.776 481.471 391.705 482.472C391.705 482.896 391.634 483.25 391.611 483.532C391.611 483.638 391.587 483.744 391.552 483.839Z" fill="#DCE6FF"/>
<path d="M515.943 297.127C515.943 297.221 514.671 296.774 512.633 296.267C509.972 295.596 507.251 295.207 504.519 295.09C501.775 295.019 499.043 295.231 496.346 295.726C494.273 296.114 493.013 296.468 492.989 296.373C493.248 296.209 493.543 296.079 493.837 295.997C494.626 295.726 495.439 295.49 496.251 295.302C498.948 294.666 501.728 294.395 504.495 294.477C507.287 294.56 510.054 295.007 512.739 295.796C513.54 296.032 514.329 296.315 515.095 296.644C515.684 296.939 515.943 297.08 515.943 297.127Z" fill="#DCE6FF"/>
<path d="M476.573 275.385C476.491 275.597 476.385 275.809 476.255 275.997L475.254 277.681C474.371 279.142 473.064 281.214 471.403 283.794C468.07 288.893 463.3 295.853 457.659 303.249C453.125 309.22 448.732 314.579 445.14 318.772L444.881 319.066L444.728 318.713C443.009 314.968 441.595 311.858 440.571 309.609C440.111 308.573 439.746 307.725 439.452 307.077C439.311 306.782 439.193 306.488 439.11 306.17C439.299 306.441 439.464 306.724 439.593 307.018C439.911 307.654 440.312 308.478 440.83 309.491C441.902 311.717 443.385 314.791 445.164 318.512L444.763 318.454C448.296 314.214 452.642 308.843 457.176 302.884C462.806 295.488 467.611 288.587 471.038 283.546L475.054 277.552L476.149 275.927C476.267 275.726 476.408 275.55 476.573 275.385Z" fill="#DCE6FF"/>
<path d="M505.202 465.317C505.026 465.317 505.567 459.181 506.38 451.655C507.193 444.13 508.029 438.053 508.194 438.076C508.359 438.1 507.817 444.2 507.016 451.726C506.215 459.251 505.344 465.328 505.202 465.317Z" fill="#DCE6FF"/>
<path d="M419.96 463.701C420.631 467.093 421.102 470.52 421.361 473.971C421.833 477.398 422.103 480.849 422.151 484.299C421.491 480.907 421.02 477.48 420.749 474.03C420.29 470.614 420.019 467.164 419.96 463.701Z" fill="#DCE6FF"/>
<path d="M411.927 311.26C411.739 310.46 410.926 309.965 410.126 310.153C409.961 310.189 409.796 310.259 409.654 310.354L409.572 310.424C408.983 310.942 408.936 311.849 409.454 312.438C409.972 313.027 410.879 313.074 411.468 312.556C411.833 312.226 412.01 311.743 411.927 311.26Z" fill="white"/>
<path d="M406.544 299.329C406.344 298.517 405.532 298.022 404.719 298.222C404.554 298.258 404.401 298.328 404.26 298.422L404.177 298.493C403.577 299.011 403.518 299.918 404.036 300.519C404.554 301.119 405.461 301.178 406.062 300.66C406.438 300.33 406.627 299.824 406.533 299.329H406.544Z" fill="white"/>
<path d="M408.889 285.552C408.689 284.739 407.877 284.245 407.064 284.445C406.899 284.48 406.746 284.551 406.605 284.645L406.522 284.704C405.933 285.222 405.886 286.129 406.404 286.718C406.923 287.307 407.83 287.354 408.418 286.836C408.783 286.518 408.948 286.035 408.878 285.552H408.889Z" fill="white"/>
<path d="M392.012 304.515C391.812 303.702 391 303.208 390.187 303.408C390.022 303.443 389.869 303.514 389.728 303.608L389.645 303.667C389.056 304.185 389.009 305.092 389.527 305.681C390.046 306.27 390.953 306.317 391.541 305.798C391.906 305.481 392.071 304.998 392.001 304.515H392.012V304.515Z" fill="white"/>
<path d="M431.148 309.975C430.96 309.174 430.147 308.68 429.346 308.868C429.181 308.903 429.017 308.974 428.875 309.068L428.793 309.139C428.204 309.657 428.157 310.564 428.675 311.153C429.193 311.742 430.1 311.789 430.689 311.271C431.054 310.941 431.231 310.458 431.148 309.975Z" fill="white"/>
<path d="M398.007 334.556C397.806 333.743 396.994 333.249 396.181 333.449C396.016 333.484 395.863 333.555 395.722 333.649H395.639C395.051 334.167 395.003 335.074 395.522 335.663C396.04 336.252 396.947 336.299 397.536 335.781C397.901 335.463 398.065 334.98 397.995 334.497L398.007 334.556Z" fill="white"/>
<path d="M378.527 364.47C378.327 363.657 377.514 363.163 376.702 363.363C376.537 363.398 376.384 363.469 376.242 363.563L376.16 363.634C375.571 364.152 375.524 365.059 376.042 365.648C376.56 366.236 377.467 366.284 378.056 365.765C378.421 365.447 378.586 364.953 378.515 364.47H378.527Z" fill="white"/>
<path d="M446.128 476.044C445.927 475.231 445.115 474.737 444.302 474.937C444.137 474.972 443.984 475.043 443.843 475.137L443.76 475.208C443.172 475.726 443.125 476.633 443.643 477.222C444.161 477.811 445.068 477.858 445.657 477.34C446.022 477.022 446.187 476.527 446.116 476.044H446.128Z" fill="white"/>
<path d="M419.746 334.556C419.546 333.743 418.733 333.249 417.92 333.449C417.756 333.484 417.602 333.555 417.461 333.649H417.379C416.79 334.167 416.743 335.074 417.261 335.663C417.779 336.252 418.686 336.299 419.275 335.781C419.64 335.463 419.805 334.98 419.734 334.497L419.746 334.556Z" fill="white"/>
<path d="M414.188 390.802C413.988 389.989 413.175 389.495 412.363 389.695C412.198 389.73 412.045 389.801 411.903 389.895L411.833 389.966C411.244 390.484 411.197 391.391 411.715 391.98C412.233 392.568 413.14 392.616 413.729 392.097C414.094 391.768 414.271 391.285 414.188 390.802Z" fill="white"/>
<path d="M429.016 356.708C428.828 355.907 428.015 355.412 427.214 355.601C427.05 355.636 426.885 355.707 426.743 355.801L426.661 355.86C426.072 356.378 426.025 357.285 426.543 357.874C427.061 358.462 427.968 358.51 428.557 357.991C428.922 357.673 429.087 357.19 429.016 356.708Z" fill="white"/>
<path d="M440.499 292.89C440.299 292.077 439.486 291.583 438.673 291.783C438.508 291.818 438.355 291.889 438.214 291.983L438.132 292.042C437.543 292.56 437.496 293.467 438.014 294.056C438.532 294.645 439.439 294.692 440.028 294.173C440.393 293.856 440.558 293.373 440.487 292.89H440.499Z" fill="white"/>
<path d="M391.164 149.621C381.895 155.51 378.209 167.887 379.952 175.201C380.847 178.887 382.52 182.597 381.789 186.307C381.165 189.522 378.845 192.101 377.079 194.88C369.553 206.987 373.251 222.91 385.358 230.435C392.577 234.923 401.551 235.57 409.348 232.167" fill="#5A4980"/>
<path d="M385.677 197.894C360.625 147.03 416.792 123.333 446.07 131.601C473.593 139.374 485.334 153.07 489.869 171.478C494.403 189.885 494.179 209.848 486.96 227.384C483.427 236.028 476.996 244.814 467.704 245.897" fill="#1E1C61"/>
<path d="M410.917 318.738C410.528 295.019 410.246 262.455 410.246 262.585C410.246 262.714 389.907 259.205 385.631 232.635C383.535 219.41 384.206 197.728 385.313 180.004C386.326 164.046 396.89 144.472 412.789 146.156L462.43 158.699C467.258 159.205 470.898 163.339 470.792 168.191L467.33 270.649" fill="#FCC6AB"/>
<path d="M395.392 196.572C395.357 198.409 396.782 199.94 398.619 200.023C400.397 200.187 401.976 198.88 402.14 197.102C402.14 197.067 402.141 197.043 402.152 197.008C402.188 195.17 400.763 193.639 398.925 193.545C397.135 193.38 395.557 194.699 395.404 196.489C395.392 196.525 395.392 196.548 395.392 196.572Z" fill="#1E1C61"/>
<path d="M430.629 196.572C430.593 198.397 432.03 199.928 433.856 200.011C435.634 200.176 437.212 198.869 437.377 197.09C437.377 197.055 437.377 197.031 437.389 196.996C437.424 195.159 435.999 193.628 434.162 193.545C432.383 193.38 430.805 194.688 430.64 196.466C430.64 196.501 430.629 196.537 430.629 196.572Z" fill="#1E1C61"/>
<path d="M391.717 190.378C392.13 190.837 394.78 189.012 398.442 189.2C402.105 189.389 404.731 191.25 405.155 190.814C405.355 190.625 404.943 189.813 403.801 188.918C402.258 187.763 400.385 187.116 398.454 187.069C396.546 186.998 394.662 187.54 393.084 188.611C391.929 189.412 391.517 190.166 391.717 190.378Z" fill="#1E1C61"/>
<path d="M426.554 191.251C426.978 191.699 429.558 189.767 433.22 189.767C436.883 189.767 439.592 191.581 439.98 191.133C440.18 190.933 439.745 190.132 438.567 189.284C436.977 188.189 435.081 187.612 433.15 187.635C431.242 187.635 429.381 188.248 427.85 189.378C426.719 190.25 426.342 191.051 426.554 191.251Z" fill="#1E1C61"/>
<path d="M413.976 219.517C413.976 219.305 411.715 218.916 408.017 218.433C407.075 218.339 406.191 218.151 406.038 217.515C405.956 216.549 406.168 215.572 406.663 214.735C407.534 212.474 408.464 210.095 409.43 207.599C413.281 197.447 416.061 189.085 415.648 188.932C415.236 188.779 411.786 196.893 407.946 207.057L405.285 214.241C404.696 215.371 404.519 216.667 404.802 217.915C405.084 218.587 405.65 219.081 406.345 219.281C406.863 219.423 407.393 219.505 407.934 219.505C411.656 219.705 413.964 219.717 413.976 219.517Z" fill="#1E1C61"/>
<path d="M411.444 262.942C423.963 263.13 436.294 259.844 447.058 253.449C447.058 253.449 438.061 271.939 411.444 269.454V262.942Z" fill="#EB996E"/>
<path d="M425.649 186.034C426.002 187.035 429.677 186.552 433.976 187.082C438.274 187.612 441.76 188.766 442.337 187.871C442.596 187.447 441.984 186.505 440.582 185.516C436.778 183.113 432.091 182.607 427.863 184.114C426.285 184.774 425.484 185.563 425.649 186.034Z" fill="#263238"/>
<path d="M392.566 181.17C393.214 182.007 395.746 181.17 398.784 181.1C401.823 181.029 404.402 181.665 404.991 180.794C405.25 180.37 404.849 179.533 403.719 178.744C402.223 177.779 400.457 177.296 398.667 177.378C396.876 177.414 395.145 178.002 393.708 179.051C392.637 179.887 392.283 180.746 392.566 181.17Z" fill="#1E1C61"/>
<path d="M467.433 203.547C467.821 203.358 481.671 197.234 481.836 213.157C482.001 229.08 465.972 225.959 465.937 225.499C465.902 225.04 467.433 203.547 467.433 203.547Z" fill="#FCC6AB"/>
<path d="M470.742 219.396C470.813 219.396 471.025 219.584 471.496 219.796C472.167 220.055 472.897 220.055 473.569 219.796C475.241 219.16 476.631 216.475 476.678 213.602C476.713 212.235 476.43 210.881 475.865 209.644C475.559 208.632 474.77 207.843 473.757 207.536C473.097 207.371 472.414 207.689 472.132 208.314C471.92 208.761 472.026 209.079 471.943 209.103C471.861 209.126 471.59 208.844 471.72 208.184C471.802 207.795 472.014 207.442 472.332 207.183C472.768 206.842 473.321 206.688 473.863 206.759C475.194 207.006 476.301 207.937 476.784 209.197C477.478 210.563 477.82 212.094 477.796 213.625C477.726 216.828 476.112 219.855 473.816 220.538C472.956 220.797 472.014 220.656 471.272 220.15C470.777 219.785 470.695 219.419 470.742 219.396Z" fill="#EB996E"/>
<path d="M408.69 138.631C399.834 143.212 396.183 161.325 399.845 170.606C403.508 179.886 413.389 184.408 423.129 186.54C432.868 188.672 442.419 188.895 452.03 186.257C452.689 192.711 456.564 199.342 462.829 201.049C471.132 203.299 479.494 195.703 481.343 187.306C483.192 178.908 480.412 170.264 477.68 162.103" fill="#1E1C61"/>
<path d="M478.94 196.399C478.94 196.399 478.54 196.87 477.703 197.576C476.537 198.566 475.313 199.484 474.041 200.344C472.145 201.651 470.048 202.664 467.846 203.347C465.09 204.219 462.134 204.172 459.402 203.218C456.717 202.134 454.467 200.191 453.007 197.694C451.829 195.704 451.04 193.49 450.71 191.193C450.475 189.662 450.392 188.119 450.463 186.577C450.439 186.011 450.51 185.446 450.663 184.904C450.84 184.904 450.663 187.319 451.346 191.075C451.747 193.254 452.547 195.351 453.702 197.247C455.103 199.543 457.199 201.345 459.696 202.358C462.252 203.241 465.008 203.3 467.599 202.523C469.742 201.899 471.779 200.992 473.664 199.802C476.938 197.753 478.846 196.269 478.94 196.399Z" fill="#5A4980"/>
<path d="M415.06 229.74C415.531 231.118 416.191 232.426 417.039 233.615C417.898 234.816 419.229 235.594 420.701 235.747C422.279 235.735 423.751 234.934 424.611 233.615C425.436 232.284 425.812 230.73 425.695 229.163C425.636 227.762 424.988 226.089 423.598 225.925C423.009 225.901 422.432 226.031 421.914 226.301L414.589 229.269" fill="#EB996E"/>
<path d="M417.981 235.756C417.981 235.532 419.63 236.18 421.891 235.273C423.175 234.778 424.223 233.824 424.847 232.6C425.554 231.092 425.589 229.349 424.941 227.806C424.777 227.418 424.553 227.053 424.306 226.711C424.011 226.405 424.058 226.417 423.752 226.464C423.446 226.511 422.963 226.77 422.574 226.923L421.397 227.418C419.83 228.054 418.405 228.595 417.216 229.055C414.86 229.95 413.294 230.421 413.223 230.232C413.153 230.044 414.542 229.29 416.851 228.183C418.028 227.63 419.383 227.005 420.925 226.287L422.103 225.757C422.539 225.58 422.857 225.392 423.446 225.204C423.799 225.086 424.176 225.086 424.529 225.204C424.847 225.345 425.13 225.557 425.342 225.84C426.944 227.924 427.179 230.762 425.943 233.082C425.153 234.543 423.811 235.626 422.221 236.086C421.196 236.427 420.101 236.462 419.053 236.215C418.299 236.086 417.958 235.838 417.981 235.756Z" fill="#1E1C61"/>
<path d="M485.322 192.63C483.697 192.512 470.542 194.22 471.579 218.658C472.544 241.493 488.561 236.464 493.672 227.867C498.477 219.729 501.28 193.749 485.322 192.63Z" fill="#294197"/>
<path d="M493.413 195.517C493.378 195.305 493.354 195.093 493.354 194.881C493.354 194.398 493.354 193.786 493.284 193.008C493.284 191.324 493.166 188.969 493.083 186.048C492.966 180.054 492.801 171.704 492.601 162.082L492.895 162.364H486.123L486.429 162.058C486.429 163.872 486.524 165.792 486.583 167.747C486.806 176.909 487.018 185.412 487.195 192.608V192.82H486.995C484.215 193.456 481.742 195.058 480.011 197.319C478.704 199.074 477.75 201.076 477.22 203.207C476.866 204.573 476.631 205.975 476.501 207.388C476.501 207.871 476.442 208.248 476.431 208.495C476.419 208.743 476.431 208.884 476.431 208.884C476.419 208.754 476.419 208.625 476.431 208.495C476.431 208.248 476.431 207.871 476.431 207.376C476.49 205.951 476.69 204.526 477.02 203.137C477.514 200.946 478.445 198.873 479.764 197.06C481.542 194.704 484.086 193.032 486.959 192.349L486.759 192.608C486.559 185.459 486.312 176.921 486.053 167.747C485.994 165.803 485.947 163.884 485.899 162.058V161.74H493.284V162.035C493.39 171.668 493.484 180.006 493.555 186.013C493.555 188.934 493.555 191.289 493.555 192.973C493.555 193.75 493.555 194.363 493.555 194.834C493.543 195.069 493.496 195.305 493.413 195.517Z" fill="#EDF1FA"/>
<path d="M485.323 162.068C485.323 162.068 478.445 145.98 462.063 138.031C455.798 134.91 449.214 132.472 442.431 130.752C442.431 130.752 451.994 128.491 467.457 135.369C474.523 138.502 481.589 142.565 486.3 148.677C489.268 152.552 492.99 160.124 492.978 162.068H485.323Z" fill="#294197"/>
<path d="M499.561 181.171C499.419 179.675 499.054 178.203 498.489 176.813C496.781 173.068 493.778 170.065 490.033 168.346C487.466 167.18 484.698 166.508 481.883 166.355C478.645 166.19 475.394 166.438 472.214 167.085C465.466 168.334 458.376 171.243 450.438 172.444C446.564 172.962 442.654 172.962 438.779 172.444C435.187 171.902 431.666 170.948 428.298 169.594C422.574 167.286 417.368 163.859 412.987 159.513C410.043 156.604 407.546 153.271 405.591 149.62C405.262 149.067 404.967 148.489 404.72 147.889L404.155 146.582C404.013 146.264 403.907 145.993 403.813 145.781C403.766 145.686 403.731 145.592 403.719 145.498C403.778 145.58 403.837 145.663 403.872 145.757L404.261 146.534L404.885 147.806C405.156 148.395 405.462 148.961 405.803 149.514C407.829 153.082 410.349 156.357 413.294 159.207C420.242 166.014 429.181 170.442 438.814 171.843C442.63 172.35 446.493 172.35 450.309 171.843C458.141 170.666 465.242 167.769 472.073 166.544C475.3 165.896 478.586 165.672 481.871 165.861C484.745 166.037 487.56 166.756 490.174 167.969C493.978 169.747 497.005 172.868 498.666 176.731C499.078 177.779 499.349 178.886 499.478 180.005V180.876C499.525 180.971 499.549 181.077 499.561 181.171Z" fill="#5A4980"/>
<path d="M481.79 155.792C481.507 155.863 481.224 155.91 480.942 155.933C480.388 156.016 479.564 156.133 478.516 156.322C476.419 156.663 473.416 157.335 469.718 158.253C465.396 159.419 460.991 160.279 456.54 160.809C451.075 161.374 445.563 161.245 440.122 160.444C434.681 159.655 429.358 158.23 424.259 156.181C420.078 154.52 416.074 152.459 412.305 149.998C410.727 148.926 409.314 147.937 408.112 146.994C406.911 146.052 405.898 145.24 405.121 144.509L403.331 142.825C402.93 142.437 402.718 142.225 402.742 142.201C402.978 142.354 403.201 142.531 403.413 142.731L405.274 144.321C406.075 145.028 407.147 145.781 408.324 146.676C409.502 147.572 410.962 148.549 412.541 149.585C420.938 154.885 430.347 158.359 440.17 159.796C445.563 160.585 451.028 160.715 456.457 160.197C460.885 159.714 465.267 158.925 469.577 157.841C473.287 156.981 476.325 156.369 478.445 156.086C479.505 155.945 480.329 155.863 480.895 155.827C481.189 155.792 481.495 155.78 481.79 155.792Z" fill="#5A4980"/>
<path d="M483.532 234.698C483.379 234.663 483.226 234.616 483.072 234.557C482.66 234.38 482.272 234.18 481.895 233.933C480.47 233.002 479.292 231.742 478.444 230.258C477.231 228.044 476.513 225.594 476.324 223.086C476.053 220.047 476.053 216.985 476.324 213.947C476.583 210.908 477.078 207.893 477.832 204.937C478.362 202.499 479.257 200.144 480.458 197.954C481.329 196.47 482.543 195.209 483.991 194.291C484.356 194.044 484.757 193.843 485.169 193.678C485.463 193.572 485.628 193.525 485.628 193.549C485.628 193.572 485.027 193.82 484.074 194.491C482.743 195.469 481.636 196.717 480.847 198.166C479.716 200.344 478.892 202.676 478.397 205.079C477.679 208.011 477.196 211.003 476.937 214.006C476.689 217.009 476.689 220.024 476.937 223.027C477.09 225.488 477.749 227.891 478.868 230.093C479.645 231.554 480.741 232.814 482.071 233.791C482.966 234.415 483.567 234.639 483.532 234.698Z" fill="#EDF1FA"/>
<path d="M418.477 233.438L430.56 231.07C432.374 230.717 434.14 231.895 434.505 233.72L434.599 234.168C434.953 235.981 433.775 237.748 431.95 238.113L419.866 240.48C418.053 240.834 416.286 239.656 415.921 237.83L415.827 237.383C415.473 235.557 416.663 233.791 418.477 233.438Z" fill="#1E1C61"/>
<path d="M432.878 232.848L488.76 215.323C490.138 214.888 491.61 215.653 492.058 217.031C492.505 218.421 491.728 219.917 490.338 220.352C490.303 220.364 490.268 220.376 490.232 220.388L433.09 235.816L432.878 232.848Z" fill="#EDF1FA"/>
<path d="M474.183 225.146C474.783 224.887 475.396 224.663 476.032 224.499L481.143 222.944C483.286 222.285 485.924 221.578 488.704 220.671C489.387 220.412 490.011 220.012 490.529 219.493C491.036 218.975 491.318 218.28 491.318 217.55C491.318 216.82 490.835 216.172 490.141 215.948C489.363 215.748 488.551 215.772 487.785 216.019L471.026 221.413L465.927 222.991C465.338 223.227 464.737 223.427 464.125 223.568C464.714 223.286 465.326 223.038 465.95 222.85L470.991 221.083C475.266 219.635 481.131 217.621 487.726 215.513C488.598 215.254 489.54 215.254 490.411 215.513C491.33 215.842 491.942 216.702 491.966 217.68C491.966 218.563 491.624 219.411 491 220.035C490.376 220.577 489.646 220.977 488.857 221.213C485.971 222.12 483.392 222.756 481.214 223.368L476.102 224.746C475.478 224.946 474.83 225.076 474.183 225.146Z" fill="#5A4980"/>
<path d="M382.86 182.348C384.768 189.061 377.949 194.82 375.547 201.379C373.191 207.715 375.194 214.817 378.055 220.941C380.917 227.065 384.686 232.86 386.146 239.443C389.762 255.695 375.064 273.208 377.902 289.613C378.915 295.596 381.329 301.838 383.414 307.526C385.428 312.885 385.428 318.809 383.414 324.167C380.234 333.589 374.84 338.005 371.048 347.168C369.105 351.879 369.258 357.108 369.352 362.172C369.446 367.236 369.423 372.536 367.162 377.082C364.9 381.628 359.742 385.137 354.843 383.818C360.284 389.907 369.128 391.591 376.418 387.928C382.86 384.49 386.464 377.517 389.55 370.899C404.483 338.853 412.386 336.145 411.926 300.79C411.926 298.517 411.479 263.103 411.479 263.103C408.381 262.267 405.414 261.019 402.658 259.393C385.981 247.875 385.369 227.36 385.499 211.449" fill="#1E1C61"/>
<path d="M416.19 289.613V302.957C416.19 302.957 405.932 355.306 402.847 384.383C399.761 413.461 399.255 421.14 399.255 421.14C399.255 421.14 406.616 432.622 422.008 413.12C437.401 393.617 440.145 390.543 446.304 390.201C446.304 390.201 438.779 308.433 439.12 305.406C439.497 303.263 440.439 301.249 441.853 299.588L416.19 289.613Z" fill="#FCC6AB"/>
<path d="M436.376 259.512C436.376 259.512 419.618 281.747 418.251 284.809C416.885 287.871 416.19 289.591 416.19 289.591L441.853 299.519L466.832 272.149L476.065 247.853L473.321 219.117C473.321 219.117 467.857 218.775 466.832 223.568C466.208 226.607 465.972 229.704 466.137 232.802L458.482 226.642L446.128 222.885C446.128 222.885 443.219 227.667 448.012 230.069C452.805 232.472 454.172 232.425 454.172 232.425L458.482 239.95L456.598 248.383L447.859 240.139C446.116 238.49 443.443 238.325 441.499 239.738L435.846 243.837L430.558 241.481L420.301 250.656L416.19 254.413C416.19 254.413 418.934 259.547 424.434 257.157L429.911 254.801L436.376 259.512Z" fill="#FCC6AB"/>
<path d="M416.191 294.123C416.179 293.888 416.179 293.641 416.191 293.405C416.191 292.934 416.25 292.227 416.356 291.321C416.497 290.19 416.709 289.071 417.004 287.964C417.369 286.445 417.97 284.984 418.794 283.654C422.633 277.765 428.675 269.521 436.212 259.381V259.687L429.711 254.906H429.935L426.555 256.401C425.389 256.967 424.188 257.438 422.951 257.803C421.609 258.121 420.184 257.968 418.947 257.344C417.687 256.696 416.639 255.695 415.932 254.47L415.838 254.305L415.991 254.164C420.396 250.018 425.307 245.837 430.347 241.362L430.5 241.233L430.665 241.327L435.223 244.024H434.929L440.252 240.491C441.182 239.89 442.018 239.313 443.019 238.7C444.126 238.147 445.457 238.265 446.458 238.995L456.834 247.769L456.351 247.934C456.916 245.402 457.529 242.658 458.141 239.89V240.102L453.831 232.576L454.102 232.73C453.371 232.635 452.653 232.435 451.97 232.152C451.299 231.905 450.627 231.622 449.956 231.328C449.285 231.034 448.625 230.704 447.966 230.386C447.624 230.221 447.294 229.997 446.965 229.809C446.647 229.573 446.341 229.314 446.07 229.032C445.269 228.184 444.845 227.053 444.892 225.887C444.927 224.756 445.245 223.661 445.799 222.684L445.917 222.483L446.152 222.554L458.494 226.323H458.553L466.209 232.482L465.726 232.741C465.561 229.691 465.773 226.629 466.373 223.638C466.621 222.071 467.539 220.693 468.87 219.845C470.189 219.068 471.697 218.691 473.228 218.75H473.546V219.009C474.511 229.22 475.418 238.854 476.254 247.745V247.804C472.839 256.755 469.73 264.881 466.974 272.077L447.636 293.417L442.383 299.105C441.783 299.729 441.323 300.224 441.006 300.566L440.523 301.048C440.523 301.048 440.664 300.86 440.958 300.518L442.289 299.023L447.471 293.264L466.715 272.065V272.124L475.901 247.816V247.934C475.041 239.042 474.123 229.42 473.133 219.198L473.404 219.469C472.003 219.41 470.613 219.763 469.4 220.481C468.199 221.247 467.386 222.495 467.174 223.897C466.585 226.841 466.373 229.844 466.538 232.836V233.519L466.008 233.095L458.235 226.9H458.341L445.999 223.143L446.341 223.002C445.846 223.885 445.563 224.886 445.528 225.899C445.481 226.9 445.846 227.889 446.541 228.619C446.788 228.867 447.047 229.102 447.33 229.302C447.648 229.479 447.93 229.667 448.26 229.832C448.92 230.15 449.567 230.48 450.227 230.763C451.464 231.363 452.771 231.823 454.125 232.117H454.314L454.384 232.235L458.695 239.76L458.754 239.866V239.984C458.129 242.752 457.576 245.496 456.952 248.028L456.846 248.523L456.457 248.193L446.117 239.442C445.292 238.83 444.209 238.736 443.29 239.183C442.419 239.702 441.477 240.361 440.582 240.938L435.247 244.471L435.105 244.565L434.952 244.483L430.394 241.774H430.724C425.684 246.226 420.761 250.407 416.344 254.529L416.403 254.223C417.051 255.353 418.017 256.284 419.183 256.884C420.313 257.461 421.62 257.614 422.857 257.308C424.07 256.955 425.248 256.496 426.39 255.954L429.77 254.47H429.9L430.006 254.541L436.495 259.346L436.672 259.475L436.542 259.652C428.969 269.792 422.869 277.965 418.982 283.795C418.17 285.102 417.546 286.527 417.157 288.023C416.862 289.118 416.627 290.225 416.462 291.344C416.333 292.251 416.274 292.958 416.238 293.417C416.203 293.876 416.191 294.123 416.191 294.123Z" fill="#EB996E"/>
<path d="M447.942 264.656C447.824 264.656 448.271 262.842 448.46 259.945C448.589 258.261 448.307 256.565 447.659 254.999C446.681 253.173 445.28 251.595 443.572 250.406C440.534 248.074 437.354 245.918 434.068 243.94L431.065 242.173C430.676 241.985 430.311 241.749 429.981 241.479C430.394 241.585 430.794 241.738 431.159 241.961C431.913 242.303 432.985 242.845 434.28 243.563C437.648 245.447 440.875 247.567 443.937 249.923C445.716 251.171 447.164 252.832 448.153 254.763C448.825 256.412 449.084 258.202 448.884 259.969C448.778 261.134 448.589 262.289 448.307 263.431C448.248 263.855 448.118 264.267 447.942 264.656Z" fill="#EB996E"/>
<path d="M465.902 253.987C465.973 252.95 466.126 251.914 466.338 250.901C466.703 248.44 466.88 245.967 466.868 243.482C466.833 240.997 466.621 238.512 466.208 236.05C465.985 235.037 465.82 234.013 465.726 232.988C466.161 233.942 466.468 234.943 466.632 235.968C467.716 240.914 467.763 246.026 466.762 250.984C466.609 252.02 466.326 253.033 465.902 253.987Z" fill="#EB996E"/>
<path d="M351.536 166.718L339.288 145.084C356.07 117.831 347.579 82.1234 320.315 65.3528C293.063 48.5704 257.354 57.0617 240.584 84.3257C223.813 111.59 232.293 147.286 259.557 164.057C280.096 176.705 306.324 175.304 325.402 160.535L351.536 166.718Z" fill="#FB6E67"/>
<path d="M277.422 114.781C277.422 117.384 275.314 119.492 272.711 119.492C270.108 119.492 268 117.384 268 114.781C268 112.178 270.108 110.07 272.711 110.07C275.314 110.07 277.422 112.178 277.422 114.781Z" fill="white"/>
<path d="M296.219 114.781C296.219 117.384 294.11 119.492 291.508 119.492C288.905 119.492 286.797 117.384 286.797 114.781C286.797 112.178 288.905 110.07 291.508 110.07C294.11 110.07 296.219 112.178 296.219 114.781Z" fill="white"/>
<path d="M314.978 112.428C316.286 114.677 315.52 117.562 313.271 118.87C311.021 120.177 308.136 119.411 306.829 117.162C305.521 114.913 306.287 112.027 308.536 110.72C308.548 110.72 308.548 110.708 308.56 110.708C310.809 109.424 313.683 110.19 314.978 112.428Z" fill="white"/>
<path d="M431.797 484.302C437.403 475.776 446.789 470.476 456.988 470.076C474.194 469.487 482.792 484.302 482.792 484.302H431.797Z" fill="#0038B2"/>
<path d="M464.773 483.841C464.549 482.993 464.372 482.145 464.266 481.273C463.336 477.187 460.91 473.607 457.447 471.239C456.682 470.815 455.952 470.344 455.245 469.826C456.128 469.967 456.988 470.297 457.73 470.792C461.534 473.006 464.125 476.834 464.796 481.179C464.985 482.063 464.973 482.969 464.773 483.841Z" fill="#263238"/>
<path d="M421.15 483.677V483.56C421.091 479.956 418.147 477.059 414.543 477.07H268.107C264.456 477.07 261.5 480.026 261.5 483.677H421.15Z" fill="#0038B2"/>
<path d="M140.809 227.101C140.809 230.186 143.164 414.097 143.164 414.097L279.778 446.967H291.002L283.818 190.227H273.548L140.809 227.101Z" fill="#294197"/>
<path d="M169.698 406.453L127.359 484.041H166.059C159.134 483.357 227.3 484.041 227.3 484.041L166.059 467.8L185.22 424.284L183.583 406.453H169.698Z" fill="#19307E"/>
<path d="M170.17 420.433V301.287L218.83 296.748V431.212L198.006 427.241L170.17 420.433Z" fill="url(#paint4_linear)"/>
<path d="M185.22 424.285C185.373 424.344 179.485 437.97 172.065 454.694C164.645 471.417 158.498 484.937 158.345 484.867C158.192 484.796 164.08 471.182 171.5 454.447C178.919 437.711 185.067 424.215 185.22 424.285Z" fill="#1E3070"/>
<path d="M279.719 447.013C279.719 447.013 279.719 446.789 279.719 446.353C279.719 445.917 279.719 445.246 279.719 444.41C279.719 442.679 279.66 440.17 279.625 436.943C279.625 430.466 279.424 421.091 279.201 409.503C278.765 386.325 277.717 354.327 276.433 318.984C275.149 283.641 274.172 251.607 273.842 228.43C273.665 216.841 273.583 207.455 273.618 200.978C273.618 197.751 273.618 195.242 273.618 193.511C273.618 192.675 273.618 192.039 273.618 191.568C273.618 191.097 273.618 190.908 273.618 190.908C273.618 190.908 273.618 191.132 273.618 191.568C273.618 192.003 273.618 192.675 273.618 193.511C273.618 195.242 273.618 197.751 273.713 200.978C273.713 207.455 273.901 216.83 274.137 228.418C274.643 251.596 275.691 283.629 276.975 318.96C278.259 354.292 279.236 386.314 279.566 409.491C279.742 421.08 279.813 430.466 279.79 436.943C279.79 440.17 279.79 442.679 279.79 444.41C279.79 445.246 279.79 445.894 279.79 446.353C279.79 446.812 279.719 447.013 279.719 447.013Z" fill="#1E3070"/>
<path d="M211.143 292.852C211.32 292.852 211.449 323.613 211.449 361.547C211.449 399.481 211.32 430.243 211.143 430.243C210.966 430.243 210.837 399.493 210.837 361.547C210.837 323.602 210.978 292.852 211.143 292.852Z" fill="url(#paint5_linear)"/>
<path d="M168.849 301.287L218.827 296.748V432.249L168.849 420.199V301.287Z" fill="#19307E"/>
<path d="M65.7577 360.307C71.7366 357.227 78.7652 356.827 85.3945 357.923C88.9544 358.516 92.6627 359.577 95.093 362.259C97.5234 364.94 97.9684 369.641 95.1843 371.934C93.5299 373.304 91.225 373.509 89.0799 373.486C83.8883 373.429 78.1262 372.516 73.9843 375.631C71.611 377.423 70.0364 380.378 67.2182 381.256C64.3999 382.135 61.3191 380.481 59.8586 377.982C58.5122 375.38 58.2156 372.368 59.0257 369.55C59.7103 365.59 62.1977 362.167 65.7577 360.307Z" fill="#FFCB67"/>
<path d="M52.0767 333.904C55.7279 339.119 62.825 337.384 66.1226 334.212C69.4201 331.04 70.8007 326.408 72.0672 322.015C74.954 311.963 77.875 301.477 75.7185 291.208C75.205 288.104 73.8472 285.206 71.782 282.832C69.6597 280.448 66.4306 279.364 63.3043 280.003C59.7215 280.95 57.5079 284.453 55.8991 287.796C51.1639 297.631 48.6765 308.414 48.6309 319.333C48.6309 324.411 49.2128 329.739 52.0539 333.938" fill="#FFCB67"/>
<path d="M42.0479 341.389C46.0187 336.677 46.7717 329.819 45.0032 323.92C43.2346 318.021 39.2981 313.012 34.6656 308.916C29.2572 304.112 22.9702 300.404 16.147 297.996C13.5112 296.924 10.6587 296.445 7.81761 296.581C4.93085 296.741 2.31793 298.327 0.823208 300.803C-1.12792 304.523 0.743338 309.03 2.76293 312.715C6.32288 319.196 10.3963 325.392 14.9261 331.234C18.5773 335.935 22.7534 340.567 28.3102 342.644C33.8669 344.721 39.6404 344.527 42.6413 340.716" fill="#FFCB67"/>
<path d="M51.8383 412.565C52.0322 411.789 52.1349 411.002 52.1692 410.203C52.3289 408.469 52.5457 406.313 52.7967 403.734C53.1162 400.551 53.5954 397.378 54.2458 394.241C55.0902 390.43 56.2312 386.687 57.6688 383.047C59.0837 379.419 61.0006 376.007 63.3739 372.915C65.3022 370.405 67.7782 368.351 70.6079 366.914C72.5362 365.978 74.6014 365.35 76.7237 365.065C77.5224 365.031 78.3097 364.917 79.0856 364.723C78.2869 364.631 77.4882 364.631 76.6895 364.723C74.4873 364.894 72.3422 365.442 70.3341 366.366C67.356 367.769 64.7545 369.846 62.7121 372.425C60.2361 375.562 58.2393 379.042 56.7903 382.762C55.3184 386.459 54.1774 390.281 53.3672 394.172C52.7511 397.344 52.3289 400.551 52.1007 403.78C51.8953 406.529 51.8269 408.754 51.7812 410.295C51.7242 411.059 51.7356 411.812 51.8383 412.565Z" fill="#BE9951"/>
<path d="M52.283 407.592C52.3287 407.216 52.3287 406.828 52.283 406.451V403.302C52.283 400.575 52.283 396.627 52.42 391.755C52.6596 381.999 53.561 371.502 55.1242 356.703C56.6531 342.794 58.7183 326.592 60.8977 316.072C61.3541 313.676 61.8333 311.508 62.2669 309.636C62.7005 307.765 63.0542 306.111 63.4079 304.787C63.7616 303.464 63.9556 302.505 64.1496 301.741C64.2637 301.375 64.3321 300.988 64.3435 300.6C64.1724 300.919 64.0354 301.273 63.9556 301.627C63.716 302.414 63.4193 303.418 63.0428 304.639C62.6662 305.86 62.2212 307.56 61.7534 309.454C61.2856 311.348 60.7379 313.482 60.2245 315.866C57.5431 328.303 55.5121 340.866 54.1543 353.52C52.5341 368.353 51.8038 381.851 51.7354 391.618C51.7354 396.513 51.7354 400.472 51.9065 403.199C51.9864 404.477 52.0548 405.481 52.1005 406.337C52.1005 406.771 52.1689 407.193 52.283 407.592Z" fill="#BE9951"/>
<path d="M52.3396 381.552C52.4308 380.456 52.4308 379.361 52.3396 378.266C52.157 375.288 51.8147 372.31 51.3355 369.366C50.6166 364.996 49.6582 360.671 48.4487 356.404C47.0224 351.167 45.1968 346.055 42.9947 341.103C39.2179 331.941 33.8095 323.531 27.0205 316.309C25.8453 315.077 24.5902 313.913 23.278 312.829C22.6961 312.35 22.194 311.859 21.6692 311.482L20.2201 310.478C19.3757 309.805 18.4744 309.2 17.5387 308.664C17.379 308.869 21.4524 311.277 26.5983 316.742C33.1363 324.034 38.3736 332.386 42.1047 341.445C44.2612 346.386 46.0754 351.463 47.5587 356.644C48.9736 361.413 49.9206 365.772 50.628 369.48C51.3355 373.188 51.7006 376.201 51.9402 378.3C51.9973 379.395 52.1342 380.479 52.3396 381.552Z" fill="#BE9951"/>
<path d="M27.1807 427.49L29.7822 463.238H75.7079L78.3208 427.49H27.1807Z" fill="#EDF1FA"/>
<path d="M83.7977 413.398H22.7422V427.49H83.7977V413.398Z" fill="#EDF1FA"/>
<path d="M22.7422 461.869V465.771H25.6061H82.7936V461.869H22.7422Z" fill="#DCE6FF"/>
<path d="M28.4238 472.652L25.6055 465.771H80.6022L77.3161 472.652H28.4238Z" fill="#DCE6FF"/>
<path d="M77.4655 439.23C77.4084 439.344 77.34 439.458 77.2487 439.55C77.0661 439.801 76.8494 440.097 76.5641 440.462L73.8941 443.885L73.7686 444.045L73.6545 443.885L67.0823 434.757H67.4588L60.9893 443.885L60.7839 444.171L60.5557 443.908L52.8881 434.78H53.3331C53.1962 434.94 53.0479 435.122 52.9109 435.305L46.0649 443.908L45.8367 444.193L45.6313 443.897L39.1504 434.769H39.5269C36.3435 438.409 33.6279 441.489 31.5398 443.897L31.4029 444.057L31.3002 443.874C30.2391 442.117 29.4061 440.702 28.8014 439.686C28.5389 439.23 28.3222 438.865 28.1624 438.545C28.0711 438.42 28.0027 438.283 27.957 438.146C27.957 438.146 28.0597 438.26 28.2309 438.5L28.9383 439.572L31.5626 443.691H31.3116L39.1504 434.495L39.3557 434.267L39.5269 434.518L46.0649 443.646H45.6085L52.4545 435.031L52.8767 434.506L53.1049 434.232L53.3217 434.495C56.0145 437.701 58.5932 440.793 60.9779 443.623H60.5443L67.0823 434.495L67.2763 434.232L67.4588 434.495L73.8941 443.691H73.6659L76.45 440.371L77.1917 439.504C77.3628 439.276 77.4541 439.184 77.4655 439.23Z" fill="#1E1C61"/>
<path d="M78.9592 427.252C78.9592 427.412 67.4464 427.537 53.2636 427.537C39.0809 427.537 27.5566 427.412 27.5566 427.252C27.5566 427.092 39.058 426.967 53.2636 426.967C67.4692 426.967 78.9592 427.092 78.9592 427.252Z" fill="#1E1C61"/>
<path d="M81.276 466.158C81.276 466.318 68.7249 466.444 53.3441 466.444C37.9632 466.444 25.4121 466.318 25.4121 466.158C25.4121 465.999 37.9632 465.873 53.3441 465.873C68.7249 465.873 81.276 465.999 81.276 466.158Z" fill="#1E1C61"/>
<defs>
<linearGradient id="paint0_linear" x1="154.867" y1="251.018" x2="253.968" y2="24.8376" gradientUnits="userSpaceOnUse">
<stop stop-color="#BADFFF"/>
<stop offset="1" stop-color="#D0E9FF" stop-opacity="0"/>
</linearGradient>
<linearGradient id="paint1_linear" x1="115.599" y1="100.965" x2="115.616" y2="99.412" gradientUnits="userSpaceOnUse">
<stop stop-color="#BADFFF"/>
<stop offset="1" stop-color="#D0E9FF" stop-opacity="0"/>
</linearGradient>
<linearGradient id="paint2_linear" x1="155.65" y1="114.698" x2="155.656" y2="113.093" gradientUnits="userSpaceOnUse">
<stop stop-color="#BADFFF"/>
<stop offset="1" stop-color="#D0E9FF" stop-opacity="0"/>
</linearGradient>
<linearGradient id="paint3_linear" x1="505.291" y1="89.8878" x2="541.821" y2="78.5974" gradientUnits="userSpaceOnUse">
<stop stop-color="#BADFFF"/>
<stop offset="1" stop-color="#D0E9FF" stop-opacity="0"/>
</linearGradient>
<linearGradient id="paint4_linear" x1="189.327" y1="294.479" x2="189.327" y2="427.241" gradientUnits="userSpaceOnUse">
<stop stop-color="#193746"/>
</linearGradient>
<linearGradient id="paint5_linear" x1="211.143" y1="292.852" x2="211.143" y2="430.243" gradientUnits="userSpaceOnUse">
<stop stop-color="#193746"/>
<stop offset="1" stop-color="#255770"/>
</linearGradient>
</defs>
</svg>
